<?xml version="1.0" encoding="UTF-8" standalone="no"?>
<svg
   width="170.68073"
   height="17.3333"
   viewBox="0 0 170.68074 17.333301"
   version="1.1"
   id="svg4"
   sodipodi:docname="product-brand.svg"
   inkscape:version="1.1.2 (0a00cf5339, 2022-02-04)"
   xmlns:inkscape="http://www.inkscape.org/namespaces/inkscape"
   xmlns:sodipodi="http://sodipodi.sourceforge.net/DTD/sodipodi-0.dtd"
   xmlns="http://www.w3.org/2000/svg"
   xmlns:svg="http://www.w3.org/2000/svg">
  <defs
     id="defs8" />
  <sodipodi:namedview
     id="namedview6"
     pagecolor="#0c322c"
     bordercolor="#666666"
     borderopacity="1.0"
     inkscape:pageshadow="2"
     inkscape:pageopacity="0"
     inkscape:pagecheckerboard="0"
     showgrid="false"
     inkscape:zoom="8.3229885"
     inkscape:cx="105.6111"
     inkscape:cy="4.0249966"
     inkscape:window-width="1920"
     inkscape:window-height="1011"
     inkscape:window-x="1920"
     inkscape:window-y="32"
     inkscape:window-maximized="1"
     inkscape:current-layer="text2028"
     fit-margin-top="0"
     fit-margin-left="0"
     fit-margin-right="0"
     fit-margin-bottom="0" />
  <g
     aria-label="SUSE Rancher Setup"
     id="text2028"
     style="font-size:17.3333px;line-height:1;font-family:'Work Sans';-inkscape-font-specification:'Work Sans';text-align:justify;letter-spacing:0px;word-spacing:0px">
    <path
       d="m 4.1773252,12.947975 q -1.1959977,0 -2.1493291,-0.415999 Q 1.0919979,12.098643 0.5546656,11.353312 0.01733331,10.590646 1.0967255e-8,9.6026483 H 1.6813301 q 0.086666,0.8493317 0.693332,1.4386637 0.6239987,0.571999 1.8026631,0.571999 1.1266645,0 1.7679966,-0.554666 0.6586654,-0.571998 0.6586654,-1.4559967 0,-0.693332 -0.3813326,-1.1266645 Q 5.841322,8.0426513 5.2693231,7.8173184 4.6973242,7.5919855 3.7266594,7.3319861 2.5306618,7.0199867 1.8026632,6.7079873 1.0919979,6.3959879 0.5719989,5.7373225 0.06933321,5.0613238 0.06933321,3.9346593 q 0,-0.9879981 0.50266569,-1.7506632 0.5026657,-0.7626652 1.4039973,-1.1786644 0.9186649,-0.41599921 2.0973292,-0.41599921 1.6986634,0 2.773328,0.84933171 1.0919978,0.8493317 1.2306642,2.2533289 H 6.3439877 Q 6.2573212,2.9986611 5.6159891,2.4786622 4.974657,1.9413299 3.9173257,1.9413299 q -0.9879981,0 -1.6119968,0.519999 -0.6239988,0.5026656 -0.6239988,1.4213305 0,0.6586654 0.3639993,1.0746646 0.3813326,0.4159992 0.9186648,0.6413321 0.5546656,0.2079996 1.5426637,0.4853324 1.1959977,0.3293327 1.9239963,0.6586654 0.7279986,0.3119994 1.2479976,0.987998 0.5199989,0.6586654 0.5199989,1.8026632 0,0.8839979 -0.4679991,1.6639969 -0.467999,0.779998 -1.3866639,1.265331 -0.9186649,0.485332 -2.1666625,0.485332 z"
       style="font-family:Poppins;-inkscape-font-specification:Poppins;fill:#ffffff"
       id="path28" />
    <path
       d="M 12.063975,0.74533219 V 8.3893173 q 0,1.6119967 0.779999,2.3919957 0.797331,0.779998 2.201329,0.779998 1.386664,0 2.166662,-0.779998 0.797332,-0.779999 0.797332,-2.3919957 V 0.74533219 h 1.57733 V 8.371984 q 0,1.5079971 -0.606665,2.547995 -0.606666,1.022665 -1.646664,1.52533 -1.022664,0.502666 -2.305329,0.502666 -1.282664,0 -2.322662,-0.502666 -1.022664,-0.502665 -1.62933,-1.52533 Q 10.486645,9.8799811 10.486645,8.371984 V 0.74533219 Z"
       style="font-family:Poppins;-inkscape-font-specification:Poppins;fill:#ffffff"
       id="path30" />
    <path
       d="m 26.051934,12.947975 q -1.195997,0 -2.149329,-0.415999 -0.935998,-0.433333 -1.47333,-1.178664 -0.537333,-0.762666 -0.554666,-1.7506637 h 1.68133 q 0.08667,0.8493317 0.693332,1.4386637 0.623999,0.571999 1.802663,0.571999 1.126665,0 1.767997,-0.554666 0.658665,-0.571998 0.658665,-1.4559967 0,-0.693332 -0.381332,-1.1266645 Q 27.715931,8.0426513 27.143932,7.8173184 26.571933,7.5919855 25.601268,7.3319861 24.405271,7.0199867 23.677272,6.7079873 22.966607,6.3959879 22.446608,5.7373225 21.943942,5.0613238 21.943942,3.9346593 q 0,-0.9879981 0.502666,-1.7506632 0.502666,-0.7626652 1.403997,-1.1786644 0.918665,-0.41599921 2.097329,-0.41599921 1.698664,0 2.773328,0.84933171 1.091998,0.8493317 1.230665,2.2533289 h -1.73333 Q 28.13193,2.9986611 27.490598,2.4786622 26.849266,1.9413299 25.791935,1.9413299 q -0.987998,0 -1.611997,0.519999 -0.623999,0.5026656 -0.623999,1.4213305 0,0.6586654 0.363999,1.0746646 0.381333,0.4159992 0.918665,0.6413321 0.554666,0.2079996 1.542664,0.4853324 1.195998,0.3293327 1.923996,0.6586654 0.727999,0.3119994 1.247998,0.987998 0.519999,0.6586654 0.519999,1.8026632 0,0.8839979 -0.467999,1.6639969 -0.467999,0.779998 -1.386664,1.265331 -0.918665,0.485332 -2.166663,0.485332 z"
       style="font-family:Poppins;-inkscape-font-specification:Poppins;fill:#ffffff"
       id="path32" />
    <path
       d="m 33.973252,2.0279964 v 4.0386588 h 4.402658 v 1.2999975 h -4.402658 v 4.1599923 h 4.922657 v 1.299997 H 32.395921 V 0.72799889 h 6.499988 V 2.0279964 Z"
       style="font-family:Poppins;-inkscape-font-specification:Poppins;fill:#ffffff"
       id="path34" />
    <path
       d="M 52.277163,12.826642 49.399835,7.8866516 h -1.906663 v 4.9399904 h -1.57733 V 0.74533219 h 3.899992 q 1.369331,0 2.305329,0.46799911 0.953331,0.4679991 1.421331,1.2653309 0.467999,0.7973317 0.467999,1.8199964 0,1.2479976 -0.727999,2.2013291 -0.710665,0.9533314 -2.149329,1.2653308 l 3.033327,5.0613235 z M 47.493172,6.6213208 h 2.322662 q 1.282664,0 1.923996,-0.6239988 0.641332,-0.6413321 0.641332,-1.6986634 0,-1.0746646 -0.641332,-1.6639968 -0.623998,-0.5893321 -1.923996,-0.5893321 h -2.322662 z"
       style="font-family:Poppins;-inkscape-font-specification:Poppins;fill:#ffffff"
       id="path36" />
    <path
       d="m 55.865152,8.0426513 q 0,-1.4559971 0.589333,-2.547995 0.589332,-1.1093312 1.611996,-1.7159967 1.039998,-0.6066655 2.305329,-0.6066655 1.247998,0 2.166663,0.5373323 0.918665,0.5373323 1.36933,1.3519974 v -1.73333 h 1.594664 v 9.4986482 h -1.594664 v -1.767997 q -0.467999,0.831999 -1.403997,1.386664 -0.918665,0.537333 -2.149329,0.537333 -1.265331,0 -2.287996,-0.623999 Q 57.043817,11.734644 56.454485,10.60798 55.865152,9.4813152 55.865152,8.0426513 Z m 8.042651,0.017333 q 0,-1.0746645 -0.433332,-1.8719963 -0.433333,-0.7973318 -1.178664,-1.213331 -0.727999,-0.4333325 -1.611997,-0.4333325 -0.883999,0 -1.611997,0.4159992 -0.727999,0.4159992 -1.161331,1.213331 -0.433333,0.7973318 -0.433333,1.8719963 0,1.0919979 0.433333,1.906663 0.433332,0.7973317 1.161331,1.2306647 0.727998,0.415999 1.611997,0.415999 0.883998,0 1.611997,-0.415999 0.745331,-0.433333 1.178664,-1.2306647 0.433332,-0.8146651 0.433332,-1.8893297 z"
       style="font-family:Poppins;-inkscape-font-specification:Poppins;fill:#ffffff"
       id="path38" />
    <path
       d="m 72.799761,3.1546608 q 1.73333,0 2.807994,1.0573313 1.074665,1.039998 1.074665,3.0159942 V 12.826642 H 75.122423 V 7.4533191 q 0,-1.4213305 -0.710665,-2.1666624 -0.710666,-0.7626652 -1.94133,-0.7626652 -1.247998,0 -1.993329,0.7799985 Q 69.7491,6.0839885 69.7491,7.5746522 V 12.826642 H 68.17177 V 3.3279938 h 1.57733 v 1.3519974 q 0.467999,-0.7279986 1.265331,-1.1266645 0.814665,-0.3986659 1.78533,-0.3986659 z"
       style="font-family:Poppins;-inkscape-font-specification:Poppins;fill:#ffffff"
       id="path40" />
    <path
       d="m 78.675737,8.0599846 q 0,-1.4733304 0.589333,-2.5653283 0.589332,-1.1093312 1.62933,-1.7159967 1.057331,-0.6066655 2.409328,-0.6066655 1.750664,0 2.877328,0.8493317 1.143998,0.8493317 1.507997,2.3573288 H 85.99039 q -0.242666,-0.866665 -0.953332,-1.3693307 -0.693332,-0.5026657 -1.73333,-0.5026657 -1.351997,0 -2.183995,0.9359982 -0.831999,0.9186649 -0.831999,2.6173282 0,1.7159967 0.831999,2.6519944 0.831998,0.935999 2.183995,0.935999 1.039998,0 1.73333,-0.485333 0.693332,-0.485332 0.953332,-1.3866637 h 1.698663 q -0.381332,1.4559967 -1.52533,2.3399957 -1.143998,0.866665 -2.859995,0.866665 -1.351997,0 -2.409328,-0.606666 Q 79.854402,11.769311 79.26507,10.65998 78.675737,9.5506484 78.675737,8.0599846 Z"
       style="font-family:Poppins;-inkscape-font-specification:Poppins;fill:#ffffff"
       id="path42" />
    <path
       d="m 94.501013,3.1546608 q 1.074665,0 1.94133,0.4679991 0.866665,0.4506658 1.351997,1.3693307 0.502666,0.9186649 0.502666,2.2359957 V 12.826642 H 96.737009 V 7.4533191 q 0,-1.4213305 -0.710665,-2.1666624 -0.710666,-0.7626652 -1.94133,-0.7626652 -1.247998,0 -1.99333,0.7799985 -0.727998,0.7799985 -0.727998,2.2706622 v 5.2519898 h -1.57733 V 3.0517578e-7 h 1.57733 V 4.6799912 Q 91.831685,3.9519926 92.64635,3.5533267 93.478348,3.1546608 94.501013,3.1546608 Z"
       style="font-family:Poppins;-inkscape-font-specification:Poppins;fill:#ffffff"
       id="path44" />
    <path
       d="m 109.54631,7.7133186 q 0,0.4506658 -0.052,0.9533315 h -7.59199 q 0.0867,1.4039969 0.95333,2.2013289 0.884,0.779999 2.132,0.779999 1.02266,0 1.69866,-0.467999 0.69333,-0.485333 0.97067,-1.2826646 h 1.69866 q -0.38133,1.3693306 -1.52533,2.2359956 -1.144,0.849332 -2.84266,0.849332 -1.352,0 -2.42666,-0.606666 -1.05734,-0.606665 -1.664,-1.715996 -0.60667,-1.1266649 -0.60667,-2.5999954 0,-1.4733304 0.58934,-2.5826616 0.58933,-1.1093312 1.64666,-1.6986634 1.07466,-0.6066655 2.46133,-0.6066655 1.35199,0 2.39199,0.5893322 1.04,0.5893322 1.59467,1.6293302 0.572,1.0226647 0.572,2.3226621 z M 107.91698,7.383986 q 0,-0.9013316 -0.39867,-1.5426637 -0.39867,-0.6586654 -1.092,-0.9879981 -0.676,-0.346666 -1.508,-0.346666 -1.19599,0 -2.04533,0.7626652 -0.83199,0.7626652 -0.95333,2.1146626 z"
       style="font-family:Poppins;-inkscape-font-specification:Poppins;fill:#ffffff"
       id="path46" />
    <path
       d="m 113.20361,4.8706575 q 0.416,-0.8146651 1.17867,-1.2653309 0.78,-0.4506658 1.88933,-0.4506658 V 4.783991 h -0.416 q -2.652,0 -2.652,2.8773277 v 5.1653233 h -1.57733 V 3.3279938 h 1.57733 z"
       style="font-family:Poppins;-inkscape-font-specification:Poppins;fill:#ffffff"
       id="path48" />
    <path
       d="m 126.55021,12.947975 q -1.196,0 -2.14933,-0.415999 -0.936,-0.433333 -1.47333,-1.178664 -0.53733,-0.762666 -0.55466,-1.7506637 h 1.68133 q 0.0867,0.8493317 0.69333,1.4386637 0.624,0.571999 1.80266,0.571999 1.12667,0 1.768,-0.554666 0.65866,-0.571998 0.65866,-1.4559967 0,-0.693332 -0.38133,-1.1266645 -0.38133,-0.4333325 -0.95333,-0.6586654 -0.572,-0.2253329 -1.54266,-0.4853323 -1.196,-0.3119994 -1.924,-0.6239988 -0.71067,-0.3119994 -1.23066,-0.9706648 -0.50267,-0.6759987 -0.50267,-1.8026632 0,-0.9879981 0.50267,-1.7506632 0.50266,-0.7626652 1.40399,-1.1786644 0.91867,-0.41599921 2.09733,-0.41599921 1.69867,0 2.77333,0.84933171 1.092,0.8493317 1.23066,2.2533289 h -1.73333 q -0.0867,-0.693332 -0.72799,-1.2133309 -0.64134,-0.5373323 -1.69867,-0.5373323 -0.988,0 -1.61199,0.519999 -0.624,0.5026656 -0.624,1.4213305 0,0.6586654 0.364,1.0746646 0.38133,0.4159992 0.91866,0.6413321 0.55467,0.2079996 1.54266,0.4853324 1.196,0.3293327 1.924,0.6586654 0.728,0.3119994 1.248,0.987998 0.52,0.6586654 0.52,1.8026632 0,0.8839979 -0.468,1.6639969 -0.468,0.779998 -1.38667,1.265331 -0.91866,0.485332 -2.16666,0.485332 z"
       style="font-family:Poppins;-inkscape-font-specification:Poppins;fill:#ffffff"
       id="path50" />
    <path
       d="m 141.56085,7.7133186 q 0,0.4506658 -0.052,0.9533315 h -7.59199 q 0.0867,1.4039969 0.95333,2.2013289 0.884,0.779999 2.132,0.779999 1.02266,0 1.69866,-0.467999 0.69333,-0.485333 0.97067,-1.2826646 h 1.69866 q -0.38133,1.3693306 -1.52533,2.2359956 -1.144,0.849332 -2.84266,0.849332 -1.352,0 -2.42666,-0.606666 -1.05733,-0.606665 -1.664,-1.715996 -0.60667,-1.1266649 -0.60667,-2.5999954 0,-1.4733304 0.58934,-2.5826616 0.58933,-1.1093312 1.64666,-1.6986634 1.07467,-0.6066655 2.46133,-0.6066655 1.352,0 2.39199,0.5893322 1.04,0.5893322 1.59467,1.6293302 0.572,1.0226647 0.572,2.3226621 z M 139.93152,7.383986 q 0,-0.9013316 -0.39867,-1.5426637 -0.39866,-0.6586654 -1.092,-0.9879981 -0.676,-0.346666 -1.50799,-0.346666 -1.196,0 -2.04533,0.7626652 -0.832,0.7626652 -0.95333,2.1146626 z"
       style="font-family:Poppins;-inkscape-font-specification:Poppins;fill:#ffffff"
       id="path52" />
    <path
       d="m 145.56482,4.6279913 v 5.5986557 q 0,0.693332 0.29467,0.987998 0.29466,0.277333 1.02266,0.277333 h 1.16133 v 1.334664 h -1.42133 q -1.31733,0 -1.97599,-0.606665 -0.65867,-0.606666 -0.65867,-1.99333 V 4.6279913 h -1.23066 V 3.3279938 h 1.23066 V 0.93599849 h 1.57733 V 3.3279938 h 2.47866 v 1.2999975 z"
       style="font-family:Poppins;-inkscape-font-specification:Poppins;fill:#ffffff"
       id="path54" />
    <path
       d="m 158.3741,3.3279938 v 9.4986482 h -1.57733 v -1.403997 q -0.45066,0.727998 -1.26533,1.143998 -0.79733,0.398665 -1.76799,0.398665 -1.10933,0 -1.99333,-0.450665 -0.884,-0.467999 -1.404,-1.386664 -0.50267,-0.918665 -0.50267,-2.235996 V 3.3279938 h 1.56 v 5.3559896 q 0,1.4039976 0.71067,2.1666626 0.71066,0.745332 1.94133,0.745332 1.26533,0 1.99333,-0.779999 0.72799,-0.779998 0.72799,-2.270662 V 3.3279938 Z"
       style="font-family:Poppins;-inkscape-font-specification:Poppins;fill:#ffffff"
       id="path56" />
    <path
       d="m 162.62074,5.0786571 q 0.468,-0.8146651 1.38667,-1.3519974 0.936,-0.5546656 2.16666,-0.5546656 1.26533,0 2.288,0.6066655 1.03999,0.6066655 1.62933,1.7159967 0.58933,1.0919979 0.58933,2.547995 0,1.4386639 -0.58933,2.5653287 -0.58934,1.126664 -1.62933,1.750663 -1.02267,0.623999 -2.288,0.623999 -1.21333,0 -2.14933,-0.537333 -0.91866,-0.554665 -1.404,-1.36933 V 17.3333 h -1.57733 V 3.3279938 h 1.57733 z m 6.44799,2.9639942 q 0,-1.0746645 -0.43333,-1.8719963 -0.43333,-0.7973318 -1.17867,-1.213331 -0.72799,-0.4159992 -1.61199,-0.4159992 -0.86667,0 -1.612,0.4333325 -0.728,0.4159992 -1.17866,1.2306643 -0.43334,0.7973318 -0.43334,1.854663 0,1.0746646 0.43334,1.8893297 0.45066,0.7973317 1.17866,1.2306647 0.74533,0.415999 1.612,0.415999 0.884,0 1.61199,-0.415999 0.74534,-0.433333 1.17867,-1.2306647 0.43333,-0.8146651 0.43333,-1.906663 z"
       style="font-family:Poppins;-inkscape-font-specification:Poppins;fill:#ffffff"
       id="path58" />
  </g>
</svg>
